<svg width="35" height="21" viewBox="0 0 35 21" fill="none" xmlns="http://www.w3.org/2000/svg">
<path d="M19.531 12.2394H18.6789V7.76351C18.6789 7.5387 18.4883 7.35661 18.2529 7.35661H17.5297C17.2773 7.35661 17.0307 7.42782 16.8209 7.56159L16.0045 8.0814C15.9579 8.11101 15.9179 8.14909 15.8868 8.19347C15.8556 8.23785 15.834 8.28765 15.823 8.34004C15.812 8.39242 15.8119 8.44636 15.8228 8.49877C15.8337 8.55117 15.8552 8.60102 15.8863 8.64547L16.3592 9.32245C16.3902 9.36692 16.43 9.40512 16.4765 9.43486C16.523 9.46461 16.5751 9.48531 16.63 9.4958C16.6848 9.50629 16.7413 9.50635 16.7962 9.49598C16.851 9.48561 16.9032 9.46501 16.9498 9.43536L16.9748 9.4196V12.2394H16.1227C15.8873 12.2394 15.6967 12.4215 15.6967 12.6463V13.4601C15.6967 13.6849 15.8873 13.867 16.1227 13.867H19.531C19.7664 13.867 19.957 13.6849 19.957 13.4601V12.6463C19.957 12.4215 19.7664 12.2394 19.531 12.2394ZM33.1642 0.846191H2.48955C1.54854 0.846191 0.7854 1.57505 0.7854 2.4738V18.7498C0.7854 19.6486 1.54854 20.3774 2.48955 20.3774H33.1642C34.1052 20.3774 34.8683 19.6486 34.8683 18.7498V2.4738C34.8683 1.57505 34.1052 0.846191 33.1642 0.846191ZM3.34162 17.936V14.6808C5.22417 14.6808 6.74991 16.138 6.74991 17.936H3.34162ZM3.34162 6.54281V3.2876H6.74991C6.74991 5.08559 5.22417 6.54281 3.34162 6.54281ZM17.8269 16.3084C15.0033 16.3084 12.7144 13.7577 12.7144 10.6118C12.7144 7.46546 15.0033 4.9152 17.8269 4.9152C20.6504 4.9152 22.9393 7.46546 22.9393 10.6118C22.9393 13.7587 20.6493 16.3084 17.8269 16.3084ZM32.3121 17.936H28.9038C28.9038 16.138 30.4295 14.6808 32.3121 14.6808V17.936ZM32.3121 6.54281C30.4295 6.54281 28.9038 5.08559 28.9038 3.2876H32.3121V6.54281Z" fill="#BEC2C4"/>
</svg>
